<svg width="156" height="170" viewBox="0 0 156 170" fill="none" xmlns="http://www.w3.org/2000/svg">
<path d="M155 155.724C155 166.922 128.585 170 96 170L62 170C29.4152 170 3 166.922 3 155.724L3 154.006C3 142.808 29.4152 146.04 62 146.04L96 146.04C128.585 146.04 155 142.808 155 154.006L155 155.724Z" fill="#E9A553"/>
<path d="M155 155.724C155 166.922 128.585 170 96 170L92 170C59.4152 170 43 166.922 43 155.724L43 154.006C43 142.808 69.4152 146.04 102 146.04L96 146.04C128.585 146.04 155 142.808 155 154.006L155 155.724Z" fill="white" fill-opacity="0.13"/>
<path d="M155 97.1172C155 108.315 128.585 111.393 96 111.393L62 111.393C29.4152 111.393 3 108.315 3 97.1172L3 95.3989C3 84.201 29.4152 87.4329 62 87.4329L96 87.4329C128.585 87.4329 155 84.201 155 95.3989L155 97.1172Z" fill="#E9A553"/>
<path d="M155 97.1172C155 108.315 128.585 111.393 96 111.393L92 111.393C59.4152 111.393 43 108.315 43 97.1172L43 95.3989C43 84.201 69.4152 87.4329 102 87.4329L96 87.4329C128.585 87.4329 155 84.201 155 95.3989L155 97.1172Z" fill="white" fill-opacity="0.13"/>
<path d="M3 138.857C3 132.861 11.5817 128 16 128H144C148.418 128 152 132.861 152 138.857C152 144.853 148.418 147 144 147H11C6.58172 147 3 144.853 3 138.857Z" fill="#8A6D49"/>
<path d="M3 80.8571C3 74.8609 11.5817 70 16 70H144C148.418 70 152 74.8609 152 80.8571C152 86.8534 148.418 89 144 89H11C6.58172 89 3 86.8534 3 80.8571Z" fill="#8A6D49"/>
<path fill-rule="evenodd" clip-rule="evenodd" d="M5.44089 115.831C3.89074 117.928 3 120.38 3 123C3 130.732 10.7569 137 20.3256 137C25.1215 137 29.4623 135.425 32.5994 132.881C32.6605 131.862 33.5002 131.048 34.5439 131.002C34.5692 130.973 34.5942 130.944 34.6192 130.914C34.6438 130.943 34.6685 130.972 34.6933 131.001C35.7643 131.029 36.6294 131.866 36.6761 132.911C39.8103 135.438 44.1358 137 48.9128 137C53.7024 137 58.0381 135.43 61.1742 132.891C61.2305 131.863 62.0787 131.042 63.1316 131.002C63.1567 130.972 63.1816 130.943 63.2064 130.914C63.2189 130.929 63.2314 130.944 63.2439 130.958C63.2562 130.973 63.2685 130.987 63.2808 131.001C64.3428 131.035 65.1995 131.865 65.251 132.901C68.3861 135.434 72.7167 137 77.5 137C82.2833 137 86.6139 135.434 89.749 132.901C89.8005 131.865 90.6572 131.035 91.7192 131.001L91.7417 130.975L91.7936 130.914C91.8184 130.943 91.8434 130.972 91.8684 131.002C92.9213 131.042 93.7695 131.863 93.8258 132.891C96.9619 135.43 101.298 137 106.087 137C110.864 137 115.19 135.438 118.324 132.911C118.371 131.866 119.236 131.029 120.307 131.001C120.332 130.972 120.356 130.943 120.381 130.914C120.406 130.944 120.431 130.973 120.456 131.002C121.5 131.048 122.34 131.862 122.401 132.881C125.538 135.425 129.878 137 134.674 137C144.243 137 152 130.732 152 123C152 120.38 151.109 117.928 149.559 115.831C148.563 116.566 147.332 117 146 117H9C7.66757 117 6.43659 116.566 5.44089 115.831Z" fill="#9AEB87"/>
<rect x="3" y="105" width="149" height="12" rx="6" fill="#F08152"/>
<path fill-rule="evenodd" clip-rule="evenodd" d="M35.9274 105C40.7669 106.807 45.7749 109.014 49.6118 111.5C55.6815 115.432 63.3013 122.965 65.566 125.256C66.0104 125.706 66.4823 126.13 67.0318 126.442C70.4615 128.394 75.2931 128.512 78.892 126.796C79.0651 126.713 79.2376 126.629 79.41 126.546C80.2576 126.135 81.1026 125.725 82.006 125.454C87.0044 123.956 102.311 119.123 111.612 113.5C115.291 111.276 119.408 108.094 123.105 105H35.9274Z" fill="#FCE65B"/>
<path fill-rule="evenodd" clip-rule="evenodd" d="M35.9274 70C40.7669 71.8071 45.7749 74.0142 49.6118 76.5C55.6815 80.4324 63.3013 87.9651 65.566 90.256C66.0104 90.7056 66.4823 91.1296 67.0318 91.4423C70.4615 93.3939 75.2931 93.5117 78.892 91.7956C79.0651 91.713 79.2376 91.6294 79.41 91.5458C80.2576 91.1347 81.1026 90.7249 82.006 90.4541C87.0044 88.9558 102.311 84.1231 111.612 78.5C115.291 76.2758 119.408 73.0945 123.105 70H35.9274Z" fill="#FCE65B"/>
<path d="M3.00421 46.8875C3.00421 20.9922 29.4194 0 62.0042 0H96.0042C128.589 0 155.004 20.9922 155.004 46.8875V50.861C155.004 76.7562 128.589 70.9073 96.0042 70.9073H62.0042C29.4194 70.9073 3.00421 76.7562 3.00421 50.861V46.8875Z" fill="#E9A553"/>
<path d="M39.0042 46.8875C39.0042 20.9922 62.4194 0 95.0042 0H96.0042C128.589 0 155.004 20.9922 155.004 46.8875V50.861C155.004 76.7562 128.589 73.9073 96.0042 73.9073H92.0042C59.4194 73.9073 39.0042 76.7562 39.0042 50.861V46.8875Z" fill="white" fill-opacity="0.22"/>
<rect x="95.0042" y="26" width="12" height="6" rx="3" fill="#EEE279"/>
<rect x="96.0042" y="52" width="12" height="6" rx="3" fill="#EEE279"/>
<rect x="126.004" y="38" width="12" height="6" rx="3" fill="#EEE279"/>
</svg>
